<?xml version="1.0" encoding="UTF-8" standalone="no"?>
<svg
   xmlns:dc="http://purl.org/dc/elements/1.1/"
   xmlns:cc="http://creativecommons.org/ns#"
   xmlns:rdf="http://www.w3.org/1999/02/22-rdf-syntax-ns#"
   xmlns:svg="http://www.w3.org/2000/svg"
   xmlns="http://www.w3.org/2000/svg"
   xmlns:sodipodi="http://sodipodi.sourceforge.net/DTD/sodipodi-0.dtd"
   xmlns:inkscape="http://www.inkscape.org/namespaces/inkscape"
   inkscape:export-ydpi="768"
   inkscape:export-xdpi="768"
   inkscape:export-filename="C:\Users\RainBoyz\Desktop\Final\8. Gallow.png"
   width="48pt"
   height="48pt"
   viewBox="0 0 16.933334 16.933333"
   version="1.1"
   id="svg979"
   inkscape:version="1.0 (4035a4fb49, 2020-05-01)"
   sodipodi:docname="9. Prison.svg">
  <defs
     id="defs973" />
  <sodipodi:namedview
     id="base"
     pagecolor="#ffffff"
     bordercolor="#666666"
     borderopacity="1.0"
     inkscape:pageopacity="0.0"
     inkscape:pageshadow="2"
     inkscape:zoom="6.0435533"
     inkscape:cx="-3.5368154"
     inkscape:cy="21.311583"
     inkscape:document-units="pt"
     inkscape:current-layer="layer1"
     showgrid="false"
     units="pt"
     inkscape:window-width="1366"
     inkscape:window-height="715"
     inkscape:window-x="-8"
     inkscape:window-y="-8"
     inkscape:window-maximized="1"
     inkscape:document-rotation="0"
     inkscape:snap-bbox="true"
     inkscape:bbox-nodes="true"
     inkscape:snap-nodes="false">
    <inkscape:grid
       type="xygrid"
       id="grid1526" />
    <sodipodi:guide
       position="0.97013909,15.963209"
       orientation="56.666615,0"
       id="guide1528"
       inkscape:locked="false" />
    <sodipodi:guide
       position="0.97013909,0.97016731"
       orientation="0,56.666667"
       id="guide1530"
       inkscape:locked="false" />
    <sodipodi:guide
       position="15.963195,0.97016731"
       orientation="-56.666615,0"
       id="guide1532"
       inkscape:locked="false" />
    <sodipodi:guide
       position="15.963195,15.963209"
       orientation="0,-56.666667"
       id="guide1534"
       inkscape:locked="false" />
  </sodipodi:namedview>
  <metadata
     id="metadata976">
    <rdf:RDF>
      <cc:Work
         rdf:about="">
        <dc:format>image/svg+xml</dc:format>
        <dc:type
           rdf:resource="http://purl.org/dc/dcmitype/StillImage" />
        <dc:title></dc:title>
      </cc:Work>
    </rdf:RDF>
  </metadata>
  <g
     inkscape:label="Layer 1"
     inkscape:groupmode="layer"
     id="layer1"
     transform="translate(0,-280.06668)">
    <g
       transform="matrix(1.2344727,0,0,1.2344727,-26.547158,-70.264045)"
       id="g647">
      <g
         id="g1146">
        <path
           id="path1085"
           d="m 28.363281,284.80751 c -0.869408,0 -1.741938,0.26614 -2.417908,0.74961 -0.67597,0.48347 -1.158788,1.20256 -1.176076,2.06847 a 0.25452906,0.25452906 0 0 0 0,0.006 v 7.61068 c 0,0.65442 0.476829,1.24746 1.159168,1.24746 h 4.869632 c 0.682339,0 1.159168,-0.59304 1.159168,-1.24746 v -7.61068 a 0.25452906,0.25452906 0 0 0 0,-0.006 c -0.01736,-0.86929 -0.517851,-1.58616 -1.2005,-2.06847 -0.682648,-0.48231 -1.552889,-0.74961 -2.393484,-0.74961 z"
           style="color:#000000;font-style:normal;font-variant:normal;font-weight:normal;font-stretch:normal;font-size:medium;line-height:normal;font-family:sans-serif;font-variant-ligatures:normal;font-variant-position:normal;font-variant-caps:normal;font-variant-numeric:normal;font-variant-alternates:normal;font-variant-east-asian:normal;font-feature-settings:normal;font-variation-settings:normal;text-indent:0;text-align:start;text-decoration:none;text-decoration-line:none;text-decoration-style:solid;text-decoration-color:#000000;letter-spacing:normal;word-spacing:normal;text-transform:none;writing-mode:lr-tb;direction:ltr;text-orientation:mixed;dominant-baseline:auto;baseline-shift:baseline;text-anchor:start;white-space:normal;shape-padding:0;shape-margin:0;inline-size:0;clip-rule:nonzero;display:inline;overflow:visible;visibility:visible;opacity:1;isolation:auto;mix-blend-mode:normal;color-interpolation:sRGB;color-interpolation-filters:linearRGB;solid-color:#000000;solid-opacity:1;vector-effect:none;fill:#aabfd0;fill-opacity:1;fill-rule:nonzero;stroke:none;stroke-width:0.509007;stroke-linecap:round;stroke-linejoin:round;stroke-miterlimit:4;stroke-dasharray:none;stroke-dashoffset:0;stroke-opacity:1;color-rendering:auto;image-rendering:auto;shape-rendering:auto;text-rendering:auto;enable-background:accumulate;stop-color:#000000;stop-opacity:1" />
        <path
           sodipodi:nodetypes="ssccccsscscss"
           id="path1311"
           style="color:#000000;font-style:normal;font-variant:normal;font-weight:normal;font-stretch:normal;font-size:medium;line-height:normal;font-family:sans-serif;font-variant-ligatures:normal;font-variant-position:normal;font-variant-caps:normal;font-variant-numeric:normal;font-variant-alternates:normal;font-variant-east-asian:normal;font-feature-settings:normal;font-variation-settings:normal;text-indent:0;text-align:start;text-decoration:none;text-decoration-line:none;text-decoration-style:solid;text-decoration-color:#000000;letter-spacing:normal;word-spacing:normal;text-transform:none;writing-mode:lr-tb;direction:ltr;text-orientation:mixed;dominant-baseline:auto;baseline-shift:baseline;text-anchor:start;white-space:normal;shape-padding:0;shape-margin:0;inline-size:0;clip-rule:nonzero;display:inline;overflow:visible;visibility:visible;opacity:1;isolation:auto;mix-blend-mode:normal;color-interpolation:sRGB;color-interpolation-filters:linearRGB;solid-color:#000000;solid-opacity:1;vector-effect:none;fill:#7d8e9e;fill-opacity:1;fill-rule:nonzero;stroke:none;stroke-width:0.529167;stroke-linecap:round;stroke-linejoin:round;stroke-miterlimit:4;stroke-dasharray:none;stroke-dashoffset:0;stroke-opacity:1;color-rendering:auto;image-rendering:auto;shape-rendering:auto;text-rendering:auto;enable-background:accumulate;stop-color:#000000;stop-opacity:1"
           d="m 28.363127,284.83042 c -0.903843,0 -1.810798,0.27666 -2.513542,0.77928 -0.702742,0.50262 -0.973353,0.99611 -0.991325,1.89631 -2.3e-5,0.002 -2.3e-5,0.004 0,0.006 v 0.45165 c 0.959744,0.0309 1.667277,0.0236 2.544202,0.24753 0.909889,0.23228 1.760469,0.72302 2.347661,1.43557 0.60334,0.73215 0.926703,1.68547 1.105358,2.65824 0.264086,1.43794 0.239188,2.71873 0.134358,4.20289 0.657825,-0.0526 0.932822,-0.43446 0.924941,-1.0837 l -0.101561,-8.36704 c -0.009,-0.45485 -0.252187,-0.94604 -0.961871,-1.44745 -0.709687,-0.50141 -1.614334,-0.77928 -2.488221,-0.77928 z" />
        <path
           sodipodi:nodetypes="cscccsscc"
           id="path1147"
           d="m 27.30525,290.40566 c 0.01865,0.0184 0.03799,0.0356 0.05803,0.0514 0.270482,0.20432 0.613444,0.38867 1,0.38867 0.403092,0 0.775003,-0.13869 1.070027,-0.3711 l -7.55e-4,-2.72671 c -0.295141,-0.23127 -0.666887,-0.36901 -1.069275,-0.36901 h 4e-6 c -0.387212,0 -0.729573,0.18366 -1,0.38867 -0.02032,0.0221 0,0 -0.05886,0.0612"
           style="color:#000000;font-style:normal;font-variant:normal;font-weight:normal;font-stretch:normal;font-size:medium;line-height:normal;font-family:sans-serif;font-variant-ligatures:normal;font-variant-position:normal;font-variant-caps:normal;font-variant-numeric:normal;font-variant-alternates:normal;font-variant-east-asian:normal;font-feature-settings:normal;font-variation-settings:normal;text-indent:0;text-align:start;text-decoration:none;text-decoration-line:none;text-decoration-style:solid;text-decoration-color:#000000;letter-spacing:normal;word-spacing:normal;text-transform:none;writing-mode:lr-tb;direction:ltr;text-orientation:mixed;dominant-baseline:auto;baseline-shift:baseline;text-anchor:start;white-space:normal;shape-padding:0;shape-margin:0;inline-size:0;clip-rule:nonzero;display:inline;overflow:visible;visibility:visible;opacity:1;isolation:auto;mix-blend-mode:normal;color-interpolation:sRGB;color-interpolation-filters:linearRGB;solid-color:#000000;solid-opacity:1;vector-effect:none;fill:#f8c09d;fill-opacity:1;fill-rule:nonzero;stroke:none;stroke-width:0.529167;stroke-linecap:round;stroke-linejoin:round;stroke-miterlimit:4;stroke-dasharray:none;stroke-dashoffset:0;stroke-opacity:1;color-rendering:auto;image-rendering:auto;shape-rendering:auto;text-rendering:auto;enable-background:accumulate;stop-color:#000000;stop-opacity:1" />
        <path
           sodipodi:nodetypes="cccccccscccccccccccccccccc"
           transform="matrix(0.26458333,0,0,0.26458333,0,284.3)"
           d="m 103.19922,1.5644531 c -0.68297,0.1615649 -1.35283,0.3609879 -2,0.5996094 V 28.253906 c 0.002,0.552492 0.45144,0.998286 1.0039,0.996094 0.5496,-0.0019 0.99421,-0.446513 0.9961,-0.996094 z M 99.117188,3.109375 C 98.670097,3.3526406 98.233851,3.6088863 97.828125,3.890625 97.578839,4.0637299 97.34653,4.2479405 97.115234,4.4335938 V 28.267578 c 0.0019,0.549581 0.448451,0.996157 0.998047,0.998047 0.552476,0.0022 1.002002,-0.445556 1.003907,-0.998047 z m -1.003907,31.707031 c -0.552472,0.0019 -1.000216,0.451454 -0.998047,1.003906 v 11.124596 h 2.001954 V 35.820312 c 0.0022,-0.555362 -0.448551,-1.006098 -1.003907,-1.003906 z m 4.089839,0.01563 c -0.55536,-0.0022 -1.0061,0.448543 -1.0039,1.003907 v 11.10897 h 2 V 35.835938 c 0.002,-0.552492 -0.44361,-1.002017 -0.9961,-1.003907 z"
           style="color:#000000;font-style:normal;font-variant:normal;font-weight:normal;font-stretch:normal;font-size:medium;line-height:normal;font-family:sans-serif;font-variant-ligatures:normal;font-variant-position:normal;font-variant-caps:normal;font-variant-numeric:normal;font-variant-alternates:normal;font-variant-east-asian:normal;font-feature-settings:normal;font-variation-settings:normal;text-indent:0;text-align:start;text-decoration:none;text-decoration-line:none;text-decoration-style:solid;text-decoration-color:#000000;letter-spacing:normal;word-spacing:normal;text-transform:none;writing-mode:lr-tb;direction:ltr;text-orientation:mixed;dominant-baseline:auto;baseline-shift:baseline;text-anchor:start;white-space:normal;shape-padding:0;shape-margin:0;inline-size:0;clip-rule:nonzero;display:inline;overflow:visible;visibility:visible;opacity:1;isolation:auto;mix-blend-mode:normal;color-interpolation:sRGB;color-interpolation-filters:linearRGB;solid-color:#000000;solid-opacity:1;vector-effect:none;fill:#5b6571;fill-opacity:1;fill-rule:nonzero;stroke:none;stroke-width:2;stroke-linecap:round;stroke-linejoin:round;stroke-miterlimit:4;stroke-dasharray:none;stroke-dashoffset:0;stroke-opacity:1;color-rendering:auto;image-rendering:auto;shape-rendering:auto;text-rendering:auto;enable-background:accumulate;stop-color:#000000;stop-opacity:1"
           id="path1101" />
        <path
           id="path1316"
           style="color:#000000;font-style:normal;font-variant:normal;font-weight:normal;font-stretch:normal;font-size:medium;line-height:normal;font-family:sans-serif;font-variant-ligatures:normal;font-variant-position:normal;font-variant-caps:normal;font-variant-numeric:normal;font-variant-alternates:normal;font-variant-east-asian:normal;font-feature-settings:normal;font-variation-settings:normal;text-indent:0;text-align:start;text-decoration:none;text-decoration-line:none;text-decoration-style:solid;text-decoration-color:#000000;letter-spacing:normal;word-spacing:normal;text-transform:none;writing-mode:lr-tb;direction:ltr;text-orientation:mixed;dominant-baseline:auto;baseline-shift:baseline;text-anchor:start;white-space:normal;shape-padding:0;shape-margin:0;inline-size:0;clip-rule:nonzero;display:inline;overflow:visible;visibility:visible;opacity:1;isolation:auto;mix-blend-mode:normal;color-interpolation:sRGB;color-interpolation-filters:linearRGB;solid-color:#000000;solid-opacity:1;vector-effect:none;fill:#ef937e;fill-opacity:1;fill-rule:nonzero;stroke:none;stroke-width:2;stroke-linecap:round;stroke-linejoin:round;stroke-miterlimit:4;stroke-dasharray:none;stroke-dashoffset:0;stroke-opacity:1;color-rendering:auto;image-rendering:auto;shape-rendering:auto;text-rendering:auto;enable-background:accumulate;stop-color:#000000;stop-opacity:1"
           d="m 107.19922,11.636719 c -1.46348,0 -2.75721,0.693909 -3.7793,1.46875 -0.0768,0.08353 -1.9e-4,0.0011 -0.22265,0.232422 v 1.363281 c 0.12319,0.02896 0.24852,0.05073 0.37109,0.08203 2.86548,0.731511 5.56583,2.150379 7.67383,4.158203 l -0.002,-5.910156 c -1.11549,-0.874091 -2.52017,-1.394531 -4.04101,-1.394531 z"
           transform="matrix(0.26458333,0,0,0.26458333,0,284.3)" />
        <path
           sodipodi:nodetypes="sccccs"
           transform="matrix(0.26458333,0,0,0.26458333,0,284.3)"
           d="m 107.17773,1.0878906 c -0.32442,0 -0.64969,0.018149 -0.97461,0.037109 V 46.944908 h 1.99415 V 1.1269531 c -0.34107,-0.02242 -0.68216,-0.039063 -1.01954,-0.039063 z"
           style="color:#000000;font-style:normal;font-variant:normal;font-weight:normal;font-stretch:normal;font-size:medium;line-height:normal;font-family:sans-serif;font-variant-ligatures:normal;font-variant-position:normal;font-variant-caps:normal;font-variant-numeric:normal;font-variant-alternates:normal;font-variant-east-asian:normal;font-feature-settings:normal;font-variation-settings:normal;text-indent:0;text-align:start;text-decoration:none;text-decoration-line:none;text-decoration-style:solid;text-decoration-color:#000000;letter-spacing:normal;word-spacing:normal;text-transform:none;writing-mode:lr-tb;direction:ltr;text-orientation:mixed;dominant-baseline:auto;baseline-shift:baseline;text-anchor:start;white-space:normal;shape-padding:0;shape-margin:0;inline-size:0;clip-rule:nonzero;display:inline;overflow:visible;visibility:visible;opacity:1;isolation:auto;mix-blend-mode:normal;color-interpolation:sRGB;color-interpolation-filters:linearRGB;solid-color:#000000;solid-opacity:1;vector-effect:none;fill:#5b6571;fill-opacity:1;fill-rule:nonzero;stroke:none;stroke-width:2;stroke-linecap:round;stroke-linejoin:round;stroke-miterlimit:4;stroke-dasharray:none;stroke-dashoffset:0;stroke-opacity:1;color-rendering:auto;image-rendering:auto;shape-rendering:auto;text-rendering:auto;enable-background:accumulate;stop-color:#000000;stop-opacity:1"
           id="path1105" />
        <path
           sodipodi:nodetypes="cccccccccccsccccccccccccc"
           transform="matrix(0.26458333,0,0,0.26458333,0,284.3)"
           d="M 111.24414,1.6171875 V 28.283203 c -0.002,0.555364 0.44854,1.006099 1.00391,1.003906 0.55248,-0.0019 1.00023,-0.451415 0.99804,-1.003906 V 2.2421875 c -0.64944,-0.2501473 -1.32191,-0.4533179 -2.00195,-0.625 z m 4.03906,1.578125 V 28.296875 c -0.002,0.555364 0.44855,1.006098 1.00391,1.003906 0.55247,-0.0019 0.99826,-0.451452 0.99609,-1.003906 V 4.5390625 c -0.27318,-0.2214889 -0.55574,-0.4363673 -0.85351,-0.640625 -0.36476,-0.2502035 -0.75046,-0.4830544 -1.14649,-0.703125 z m 1.00391,31.5917965 c -0.55248,-0.0022 -1.002,0.443603 -1.00391,0.996094 v 11.161705 h 2 V 35.783203 c -0.002,-0.549581 -0.44649,-0.994204 -0.99609,-0.996094 z m -4.03906,0.01367 c -0.55248,-0.0022 -1.002,0.445556 -1.00391,0.998047 v 11.14608 h 2.00195 v -11.14608 c -0.002,-0.549581 -0.44845,-0.996157 -0.99804,-0.998047 z"
           style="color:#000000;font-style:normal;font-variant:normal;font-weight:normal;font-stretch:normal;font-size:medium;line-height:normal;font-family:sans-serif;font-variant-ligatures:normal;font-variant-position:normal;font-variant-caps:normal;font-variant-numeric:normal;font-variant-alternates:normal;font-variant-east-asian:normal;font-feature-settings:normal;font-variation-settings:normal;text-indent:0;text-align:start;text-decoration:none;text-decoration-line:none;text-decoration-style:solid;text-decoration-color:#000000;letter-spacing:normal;word-spacing:normal;text-transform:none;writing-mode:lr-tb;direction:ltr;text-orientation:mixed;dominant-baseline:auto;baseline-shift:baseline;text-anchor:start;white-space:normal;shape-padding:0;shape-margin:0;inline-size:0;clip-rule:nonzero;display:inline;overflow:visible;visibility:visible;opacity:1;isolation:auto;mix-blend-mode:normal;color-interpolation:sRGB;color-interpolation-filters:linearRGB;solid-color:#000000;solid-opacity:1;vector-effect:none;fill:#5b6571;fill-opacity:1;fill-rule:nonzero;stroke:none;stroke-width:2;stroke-linecap:round;stroke-linejoin:round;stroke-miterlimit:4;stroke-dasharray:none;stroke-dashoffset:0;stroke-opacity:1;color-rendering:auto;image-rendering:auto;shape-rendering:auto;text-rendering:auto;enable-background:accumulate;stop-color:#000000;stop-opacity:1"
           id="path1110" />
        <path
           id="path1114"
           d="m 26.193359,291.45508 c -0.421897,0 -0.740226,0.37203 -0.740234,0.79297 -1.3e-5,0.42095 0.318321,0.79492 0.740234,0.79492 h 0.634766 c 0.421903,0 0.742187,-0.37398 0.742187,-0.79492 7e-6,-0.42095 -0.320279,-0.79297 -0.742187,-0.79297 z"
           style="color:#000000;font-style:normal;font-variant:normal;font-weight:normal;font-stretch:normal;font-size:medium;line-height:normal;font-family:sans-serif;font-variant-ligatures:normal;font-variant-position:normal;font-variant-caps:normal;font-variant-numeric:normal;font-variant-alternates:normal;font-variant-east-asian:normal;font-feature-settings:normal;font-variation-settings:normal;text-indent:0;text-align:start;text-decoration:none;text-decoration-line:none;text-decoration-style:solid;text-decoration-color:#000000;letter-spacing:normal;word-spacing:normal;text-transform:none;writing-mode:lr-tb;direction:ltr;text-orientation:mixed;dominant-baseline:auto;baseline-shift:baseline;text-anchor:start;white-space:normal;shape-padding:0;shape-margin:0;inline-size:0;clip-rule:nonzero;display:inline;overflow:visible;visibility:visible;opacity:1;isolation:auto;mix-blend-mode:normal;color-interpolation:sRGB;color-interpolation-filters:linearRGB;solid-color:#000000;solid-opacity:1;vector-effect:none;fill:#ef937e;fill-opacity:1;fill-rule:nonzero;stroke:none;stroke-width:0.529167;stroke-linecap:round;stroke-linejoin:round;stroke-miterlimit:4;stroke-dasharray:none;stroke-dashoffset:0;stroke-opacity:1;color-rendering:auto;image-rendering:auto;shape-rendering:auto;text-rendering:auto;enable-background:accumulate;stop-color:#000000;stop-opacity:1" />
        <path
           id="path1118"
           d="m 26.193359,292.51367 c -0.421897,0 -0.740226,0.37204 -0.740234,0.79297 -1.3e-5,0.42095 0.318321,0.79492 0.740234,0.79492 h 0.634766 c 0.421903,0 0.742187,-0.37398 0.742187,-0.79492 7e-6,-0.42095 -0.320279,-0.79297 -0.742187,-0.79297 z"
           style="color:#000000;font-style:normal;font-variant:normal;font-weight:normal;font-stretch:normal;font-size:medium;line-height:normal;font-family:sans-serif;font-variant-ligatures:normal;font-variant-position:normal;font-variant-caps:normal;font-variant-numeric:normal;font-variant-alternates:normal;font-variant-east-asian:normal;font-feature-settings:normal;font-variation-settings:normal;text-indent:0;text-align:start;text-decoration:none;text-decoration-line:none;text-decoration-style:solid;text-decoration-color:#000000;letter-spacing:normal;word-spacing:normal;text-transform:none;writing-mode:lr-tb;direction:ltr;text-orientation:mixed;dominant-baseline:auto;baseline-shift:baseline;text-anchor:start;white-space:normal;shape-padding:0;shape-margin:0;inline-size:0;clip-rule:nonzero;display:inline;overflow:visible;visibility:visible;opacity:1;isolation:auto;mix-blend-mode:normal;color-interpolation:sRGB;color-interpolation-filters:linearRGB;solid-color:#000000;solid-opacity:1;vector-effect:none;fill:#f8c09d;fill-opacity:1;fill-rule:nonzero;stroke:none;stroke-width:0.529167;stroke-linecap:round;stroke-linejoin:round;stroke-miterlimit:4;stroke-dasharray:none;stroke-dashoffset:0;stroke-opacity:1;color-rendering:auto;image-rendering:auto;shape-rendering:auto;text-rendering:auto;enable-background:accumulate;stop-color:#000000;stop-opacity:1" />
        <path
           id="path1131"
           d="m 29.898438,291.45508 c -0.421898,0 -0.74218,0.37203 -0.742188,0.79297 -1.3e-5,0.42095 0.320274,0.79492 0.742188,0.79492 h 0.634765 c 0.421903,0 0.740234,-0.37398 0.740235,-0.79492 6e-6,-0.42095 -0.318327,-0.79297 -0.740235,-0.79297 z"
           style="color:#000000;font-style:normal;font-variant:normal;font-weight:normal;font-stretch:normal;font-size:medium;line-height:normal;font-family:sans-serif;font-variant-ligatures:normal;font-variant-position:normal;font-variant-caps:normal;font-variant-numeric:normal;font-variant-alternates:normal;font-variant-east-asian:normal;font-feature-settings:normal;font-variation-settings:normal;text-indent:0;text-align:start;text-decoration:none;text-decoration-line:none;text-decoration-style:solid;text-decoration-color:#000000;letter-spacing:normal;word-spacing:normal;text-transform:none;writing-mode:lr-tb;direction:ltr;text-orientation:mixed;dominant-baseline:auto;baseline-shift:baseline;text-anchor:start;white-space:normal;shape-padding:0;shape-margin:0;inline-size:0;clip-rule:nonzero;display:inline;overflow:visible;visibility:visible;opacity:1;isolation:auto;mix-blend-mode:normal;color-interpolation:sRGB;color-interpolation-filters:linearRGB;solid-color:#000000;solid-opacity:1;vector-effect:none;fill:#ef937e;fill-opacity:1;fill-rule:nonzero;stroke:none;stroke-width:0.529167;stroke-linecap:round;stroke-linejoin:round;stroke-miterlimit:4;stroke-dasharray:none;stroke-dashoffset:0;stroke-opacity:1;color-rendering:auto;image-rendering:auto;shape-rendering:auto;text-rendering:auto;enable-background:accumulate;stop-color:#000000;stop-opacity:1" />
        <path
           id="path1135"
           d="m 29.898438,292.51367 c -0.421898,0 -0.74218,0.37204 -0.742188,0.79297 -1.3e-5,0.42095 0.320274,0.79492 0.742188,0.79492 h 0.634765 c 0.421903,0 0.740234,-0.37398 0.740235,-0.79492 6e-6,-0.42095 -0.318327,-0.79297 -0.740235,-0.79297 z"
           style="color:#000000;font-style:normal;font-variant:normal;font-weight:normal;font-stretch:normal;font-size:medium;line-height:normal;font-family:sans-serif;font-variant-ligatures:normal;font-variant-position:normal;font-variant-caps:normal;font-variant-numeric:normal;font-variant-alternates:normal;font-variant-east-asian:normal;font-feature-settings:normal;font-variation-settings:normal;text-indent:0;text-align:start;text-decoration:none;text-decoration-line:none;text-decoration-style:solid;text-decoration-color:#000000;letter-spacing:normal;word-spacing:normal;text-transform:none;writing-mode:lr-tb;direction:ltr;text-orientation:mixed;dominant-baseline:auto;baseline-shift:baseline;text-anchor:start;white-space:normal;shape-padding:0;shape-margin:0;inline-size:0;clip-rule:nonzero;display:inline;overflow:visible;visibility:visible;opacity:1;isolation:auto;mix-blend-mode:normal;color-interpolation:sRGB;color-interpolation-filters:linearRGB;solid-color:#000000;solid-opacity:1;vector-effect:none;fill:#f8c09d;fill-opacity:1;fill-rule:nonzero;stroke:none;stroke-width:0.529167;stroke-linecap:round;stroke-linejoin:round;stroke-miterlimit:4;stroke-dasharray:none;stroke-dashoffset:0;stroke-opacity:1;color-rendering:auto;image-rendering:auto;shape-rendering:auto;text-rendering:auto;enable-background:accumulate;stop-color:#000000;stop-opacity:1" />
      </g>
      <path
         sodipodi:nodetypes="ssccssssccssccccccccccccccccccccccccccscsccscccccsccscsccccccccccccccscsccccccccccscsccccsssscccsssscccsssssccccsssscccccccccccc"
         d="m 28.363127,284.57565 c -0.903843,0 -1.810798,0.27666 -2.513542,0.77928 -0.702742,0.50262 -1.204692,1.25057 -1.222665,2.15077 -2e-5,0.002 -2e-5,0.004 0,0.006 v 7.91218 c 0,0.68034 0.495732,1.29707 1.205094,1.29707 h 5.062741 c 0.709364,0 1.205095,-0.61673 1.205095,-1.29707 v -7.91218 c 2.1e-5,-0.002 2.1e-5,-0.004 0,-0.006 -0.01805,-0.90371 -0.538818,-1.64936 -1.248502,-2.15077 -0.709687,-0.50141 -1.614334,-0.77928 -2.488221,-0.77928 z m -0.263552,0.5395 v 2.2841 c -0.29881,0.0464 -0.568555,0.17308 -0.794782,0.35295 v -2.49959 c 0.258583,-0.0712 0.525704,-0.11905 0.794782,-0.13746 z m 0.527619,5.2e-4 c 0.269523,0.0199 0.541695,0.0713 0.806151,0.14779 v 2.48977 c -0.230007,-0.18111 -0.504412,-0.30776 -0.806151,-0.35398 z m -1.851567,0.32349 v 6.01566 h -0.550871 v -5.64669 c -2.53e-4,-0.0211 -0.003,-0.0421 -0.0083,-0.0625 0.17208,-0.11713 0.360024,-0.21941 0.559139,-0.30644 z m 3.187401,0.0191 c 0.19237,0.0868 0.375483,0.18774 0.543636,0.30283 -0.003,0.0155 -0.0045,0.0312 -0.0047,0.047 v 5.64669 H 29.963022 V 288.518 c 7.94e-4,-0.0117 7.94e-4,-0.0234 0,-0.0351 z m -4.267956,0.74053 v 5.46736 c -0.149142,0.14771 -0.241841,0.35633 -0.241846,0.58136 -6e-6,0.19908 0.07307,0.38621 0.192754,0.52969 -0.119806,0.14305 -0.19275,0.32998 -0.192754,0.52916 -6e-6,0.22504 0.0927,0.43469 0.241846,0.58291 v 2.28824 c -0.333153,-0.0642 -0.538985,-0.36296 -0.538985,-0.75396 v -7.90805 -0.004 c 0.01105,-0.5042 0.21105,-0.94497 0.538985,-1.31258 z m 5.336108,0.0191 c 0.326686,0.36467 0.528113,0.79908 0.538985,1.29346 v 7.91218 c 0,0.39101 -0.205809,0.6898 -0.538985,0.75396 v -2.28824 c 0.149259,-0.14823 0.242363,-0.35777 0.242363,-0.58291 3e-6,-0.19919 -0.07295,-0.38612 -0.192754,-0.52916 0.119682,-0.14348 0.192754,-0.33061 0.192754,-0.52969 3e-6,-0.22513 -0.0931,-0.43364 -0.242363,-0.58136 z m -2.931605,1.72186 v 2.34404 c -0.350578,-0.0788 -0.634444,-0.31008 -0.794782,-0.62684 v -1.08779 c 0.160108,-0.31801 0.443691,-0.55052 0.794782,-0.62941 z m 0.527619,5.2e-4 c 0.352854,0.0788 0.645314,0.30956 0.806151,0.62167 v 1.09658 c -0.160451,0.3135 -0.452662,0.54603 -0.806151,0.62528 z m 0.806151,2.52905 v 1.16634 c -0.169378,0.14828 -0.276982,0.37048 -0.276984,0.61185 -8e-6,0.1991 0.07362,0.3862 0.193786,0.52968 -0.120293,0.14305 -0.193784,0.32996 -0.193786,0.52917 -8e-6,0.24136 0.107603,0.46456 0.276984,0.61339 v 2.27118 h -0.806151 v -5.36608 c 0.301913,-0.0465 0.576313,-0.17375 0.806151,-0.35553 z m -2.128552,0.001 c 0.226211,0.18037 0.495787,0.30796 0.794782,0.3545 v 5.36608 h -0.794782 v -2.28151 c 0.16265,-0.14885 0.265616,-0.3672 0.265616,-0.60307 5e-6,-0.19921 -0.07349,-0.38611 -0.193787,-0.52916 0.120169,-0.14349 0.193787,-0.33059 0.193787,-0.52969 5e-6,-0.23587 -0.102966,-0.4532 -0.265616,-0.60151 z m -1.11156,1.5136 h 0.635104 c 0.104148,-1e-5 0.212907,0.1 0.212905,0.26355 0,0.16355 -0.108757,0.26562 -0.212905,0.26562 h -0.635104 c -0.10415,0 -0.210845,-0.10206 -0.21084,-0.26562 3e-6,-0.16355 0.106694,-0.26356 0.21084,-0.26355 z m 3.705199,0 h 0.634588 c 0.104148,-1e-5 0.211359,0.1 0.211357,0.26355 -3e-6,0.16355 -0.107209,0.26562 -0.211357,0.26562 h -0.634588 c -0.10415,0 -0.21291,-0.10206 -0.212905,-0.26562 0,-0.096 0.03892,-0.16648 0.09095,-0.21135 0.02964,-0.0218 0.06497,-0.0413 0.121955,-0.0522 z m -3.070095,1.58802 h -0.635104 c -0.10415,0 -0.210845,-0.10206 -0.21084,-0.26562 3e-6,-0.16355 0.106694,-0.26355 0.21084,-0.26355 h 0.635104 c 0.104148,0 0.212907,0.1 0.212905,0.26355 0,0.11899 -0.05824,0.20409 -0.129707,0.24237 -0.02971,0.0157 -0.05738,0.0232 -0.0832,0.0233 z m 2.949173,-0.0522 c -0.05249,-0.0453 -0.09199,-0.11686 -0.09198,-0.21343 2e-6,-0.16355 0.108759,-0.26355 0.212905,-0.26355 h 0.634587 c 0.104148,0 0.21136,0.1 0.211357,0.26355 -3e-6,0.16355 -0.107209,0.26562 -0.211357,0.26562 h -0.634588 c -0.04031,-0.0152 -0.08062,-0.0243 -0.120922,-0.0522 z m -3.552754,0.58136 h 0.550871 v 2.08979 h -0.550871 z m 3.738272,0 h 0.538985 v 2.08979 h -0.538985 z"
         style="color:#000000;font-style:normal;font-variant:normal;font-weight:normal;font-stretch:normal;font-size:medium;line-height:normal;font-family:sans-serif;font-variant-ligatures:normal;font-variant-position:normal;font-variant-caps:normal;font-variant-numeric:normal;font-variant-alternates:normal;font-variant-east-asian:normal;font-feature-settings:normal;font-variation-settings:normal;text-indent:0;text-align:start;text-decoration:none;text-decoration-line:none;text-decoration-style:solid;text-decoration-color:#000000;letter-spacing:normal;word-spacing:normal;text-transform:none;writing-mode:lr-tb;direction:ltr;text-orientation:mixed;dominant-baseline:auto;baseline-shift:baseline;text-anchor:start;white-space:normal;shape-padding:0;shape-margin:0;inline-size:0;clip-rule:nonzero;display:inline;overflow:visible;visibility:visible;opacity:1;isolation:auto;mix-blend-mode:normal;color-interpolation:sRGB;color-interpolation-filters:linearRGB;solid-color:#000000;solid-opacity:1;vector-effect:none;fill:#000000;fill-opacity:1;fill-rule:nonzero;stroke:none;stroke-width:0.529167;stroke-linecap:round;stroke-linejoin:round;stroke-miterlimit:4;stroke-dasharray:none;stroke-dashoffset:0;stroke-opacity:1;color-rendering:auto;image-rendering:auto;shape-rendering:auto;text-rendering:auto;enable-background:accumulate;stop-color:#000000;stop-opacity:1"
         id="path1046" />
    </g>
  </g>
</svg>
